<svg width="1200" height="900" viewBox="0 0 1200 900" fill="none" xmlns="http://www.w3.org/2000/svg">
  <defs>
    <linearGradient id="bg" x1="0" y1="0" x2="1200" y2="900" gradientUnits="userSpaceOnUse">
      <stop offset="0" stop-color="#ECFDF5"/>
      <stop offset="1" stop-color="#E0F2FE"/>
    </linearGradient>
    <linearGradient id="card" x1="0" y1="0" x2="1" y2="1" gradientUnits="objectBoundingBox">
      <stop offset="0" stop-color="#FFFFFF"/>
      <stop offset="1" stop-color="#F8FAFC"/>
    </linearGradient>
    <linearGradient id="accent" x1="0" y1="0" x2="1" y2="1" gradientUnits="objectBoundingBox">
      <stop offset="0" stop-color="#10B981"/>
      <stop offset="1" stop-color="#06B6D4"/>
    </linearGradient>
    <filter id="shadow" x="0" y="0" width="200%" height="200%" color-interpolation-filters="sRGB">
      <feDropShadow dx="0" dy="14" stdDeviation="18" flood-color="#0F172A" flood-opacity="0.12"/>
    </filter>
  </defs>
  
  <rect width="1200" height="900" rx="40" fill="url(#bg)"/>
  
  <rect x="90" y="120" width="1020" height="660" rx="32" fill="url(#card)" filter="url(#shadow)"/>
  <rect x="130" y="170" width="300" height="540" rx="24" fill="#F1F5F9"/>
  <rect x="460" y="170" width="610" height="190" rx="24" fill="#F8FAFC"/>
  <rect x="460" y="390" width="610" height="320" rx="24" fill="#FFFFFF"/>

  <rect x="160" y="210" width="120" height="24" rx="12" fill="#E2E8F0"/>
  <rect x="160" y="250" width="220" height="14" rx="7" fill="#CBD5F5"/>
  <rect x="160" y="280" width="200" height="14" rx="7" fill="#E2E8F0"/>

  <rect x="160" y="340" width="240" height="120" rx="20" fill="#FFFFFF"/>
  <rect x="180" y="360" width="80" height="18" rx="9" fill="#E2E8F0"/>
  <rect x="180" y="390" width="200" height="12" rx="6" fill="#CBD5F5"/>
  <rect x="180" y="412" width="160" height="12" rx="6" fill="#E2E8F0"/>

  <rect x="160" y="480" width="240" height="120" rx="20" fill="#FFFFFF"/>
  <rect x="180" y="500" width="80" height="18" rx="9" fill="#E2E8F0"/>
  <rect x="180" y="530" width="190" height="12" rx="6" fill="#CBD5F5"/>
  <rect x="180" y="552" width="150" height="12" rx="6" fill="#E2E8F0"/>

  <rect x="160" y="620" width="180" height="42" rx="21" fill="url(#accent)"/>
  <rect x="190" y="634" width="120" height="14" rx="7" fill="#FFFFFF" fill-opacity="0.9"/>

  <rect x="500" y="210" width="180" height="20" rx="10" fill="#E2E8F0"/>
  <rect x="500" y="240" width="300" height="12" rx="6" fill="#CBD5F5"/>
  <rect x="500" y="260" width="240" height="12" rx="6" fill="#E2E8F0"/>

  <rect x="500" y="420" width="180" height="140" rx="20" fill="#F1F5F9"/>
  <rect x="700" y="420" width="180" height="140" rx="20" fill="#F1F5F9"/>
  <rect x="900" y="420" width="140" height="140" rx="20" fill="#F1F5F9"/>

  <circle cx="590" cy="485" r="32" fill="url(#accent)"/>
  <rect x="560" y="530" width="60" height="10" rx="5" fill="#94A3B8"/>

  <circle cx="790" cy="485" r="32" fill="#FDBA74"/>
  <rect x="760" y="530" width="60" height="10" rx="5" fill="#94A3B8"/>

  <circle cx="970" cy="485" r="32" fill="#22D3EE"/>
  <rect x="940" y="530" width="60" height="10" rx="5" fill="#94A3B8"/>

  <rect x="500" y="590" width="540" height="90" rx="20" fill="#F8FAFC"/>
  <rect x="530" y="620" width="200" height="14" rx="7" fill="#CBD5F5"/>
  <rect x="530" y="642" width="280" height="12" rx="6" fill="#E2E8F0"/>
  <rect x="850" y="615" width="160" height="36" rx="18" fill="url(#accent)"/>
</svg>
